FILE "Gyuwambler Jiko Chuushinha - Ippatsu Shoubu! (Japan).bin" BINARY
  TRACK 01 MODE2/2352
    INDEX 01 00:00:00
  TRACK 02 AUDIO
    INDEX 00 02:50:44
    INDEX 01 02:52:44
  TRACK 03 AUDIO
    INDEX 00 03:38:16
    INDEX 01 03:40:16
  TRACK 04 AUDIO
    INDEX 00 03:44:17
    INDEX 01 03:46:17
  TRACK 05 AUDIO
    INDEX 00 04:15:44
    INDEX 01 04:17:44
  TRACK 06 AUDIO
    INDEX 00 04:22:41
    INDEX 01 04:24:41
REM LEADOUT 07:27:44
